<?xml version="1.0" encoding="UTF-8" standalone="no"?>
<svg
   xmlns:dc="http://purl.org/dc/elements/1.1/"
   xmlns:cc="http://creativecommons.org/ns#"
   xmlns:rdf="http://www.w3.org/1999/02/22-rdf-syntax-ns#"
   xmlns:svg="http://www.w3.org/2000/svg"
   xmlns="http://www.w3.org/2000/svg"
   id="svg40"
   xml:space="preserve"
   viewBox="0 0 200 200"
   height="200"
   width="200"
   version="1.1"><metadata
     id="metadata44"><rdf:RDF><cc:Work
         rdf:about=""><dc:format>image/svg+xml</dc:format><dc:type
           rdf:resource="http://purl.org/dc/dcmitype/StillImage" /></cc:Work></rdf:RDF></metadata><desc
     id="desc2">Created with Fabric.js 5.3.0</desc><defs
     id="defs4" /><g
     id="backgroundElement"
     transform="translate(100.5,100.5)"><path
       id="rect6"
       d="M -100,-100 H 100 V 100 H -100 Z"
       style="opacity:1;fill:#ffffff;fill-opacity:0;fill-rule:nonzero;stroke:none;stroke-width:1;stroke-linecap:butt;stroke-linejoin:miter;stroke-miterlimit:4;stroke-dasharray:none;stroke-dashoffset:0" /></g><g
     id="g38"
     transform="matrix(0.68,0,0,0.68,100.66,163.17)"><g
       id="g36"><g
         id="path544565"
         transform="matrix(1.22,0,0,1.22,-221.35,136.86)"><path
           id="path9"
           d="m 356.08,495.18 c -2.34,-3.51 -5.58,-6.21 -9.72,-8.1 -4.23,-1.89 -9.18,-2.88 -14.85,-2.88 h -28.8 v 14.04 h 27.72 c 3.6,0 6.39,0.81 8.28,2.43 1.8,1.62 2.79,3.96 2.79,6.84 0,2.97 -0.99,5.22 -2.79,6.84 -1.89,1.62 -4.68,2.34 -8.28,2.34 h -27.72 v 30.51 h 17.82 v -16.47 h 10.98 c 5.67,0 10.62,-0.9 14.85,-2.79 4.14,-1.89 7.38,-4.59 9.72,-8.1 2.25,-3.42 3.42,-7.56 3.42,-12.33 0,-4.68 -1.17,-8.82 -3.42,-12.33 z"
           transform="translate(-331.1,-515.7)"
           style="opacity:1;fill:#85859c;fill-rule:nonzero;stroke:none;stroke-width:0;stroke-linecap:butt;stroke-linejoin:miter;stroke-miterlimit:2;stroke-dasharray:none;stroke-dashoffset:0" /></g><g
         id="path544567"
         transform="matrix(1.22,0,0,1.22,-166.13,131.12)"><path
           id="path12"
           d="m 367.64,498.42 v 48.78 h 17.1 v -48.78 z m 0.99,-8.01 c 1.89,1.8 4.41,2.61 7.56,2.61 3.06,0 5.58,-0.81 7.56,-2.61 1.89,-1.8 2.88,-4.05 2.88,-6.75 0,-2.52 -0.99,-4.68 -2.88,-6.3 -1.98,-1.62 -4.5,-2.52 -7.56,-2.52 -3.15,0 -5.67,0.9 -7.56,2.61 -1.98,1.8 -2.88,3.96 -2.88,6.48 0,2.61 0.9,4.77 2.88,6.48 z"
           transform="translate(-376.19,-511.02)"
           style="opacity:1;fill:#85859c;fill-rule:nonzero;stroke:none;stroke-width:0;stroke-linecap:butt;stroke-linejoin:miter;stroke-miterlimit:2;stroke-dasharray:none;stroke-dashoffset:0" /></g><g
         id="path544569"
         transform="matrix(1.22,0,0,1.22,-110.49,145.09)"><path
           id="path15"
           d="m 442.11,503.01 c -3.69,-3.6 -8.55,-5.4 -14.58,-5.4 -3.15,0 -6.03,0.54 -8.64,1.62 -2.7,1.08 -4.95,2.52 -6.84,4.5 v -5.31 h -16.29 v 48.78 h 17.1 v -23.58 c 0,-3.78 0.81,-6.66 2.61,-8.64 1.8,-1.89 4.14,-2.88 7.11,-2.88 5.31,0 8.01,3.33 8.01,9.99 v 25.11 h 17.1 v -27.9 c 0,-7.2 -1.89,-12.69 -5.58,-16.29 z"
           transform="translate(-421.73,-522.4)"
           style="opacity:1;fill:#85859c;fill-rule:nonzero;stroke:none;stroke-width:0;stroke-linecap:butt;stroke-linejoin:miter;stroke-miterlimit:2;stroke-dasharray:none;stroke-dashoffset:0" /></g><g
         id="path544571"
         transform="matrix(1.22,0,0,1.22,-33.94,145.09)"><path
           id="path18"
           d="m 504.69,503.01 c -3.69,-3.6 -8.55,-5.4 -14.58,-5.4 -3.15,0 -6.03,0.54 -8.64,1.62 -2.7,1.08 -4.95,2.52 -6.84,4.5 v -5.31 h -16.29 v 48.78 h 17.1 v -23.58 c 0,-3.78 0.81,-6.66 2.61,-8.64 1.8,-1.89 4.14,-2.88 7.11,-2.88 5.31,0 8.01,3.33 8.01,9.99 v 25.11 h 17.1 v -27.9 c 0,-7.2 -1.89,-12.69 -5.58,-16.29 z"
           transform="translate(-484.31,-522.4)"
           style="opacity:1;fill:#85859c;fill-rule:nonzero;stroke:none;stroke-width:0;stroke-linecap:butt;stroke-linejoin:miter;stroke-miterlimit:2;stroke-dasharray:none;stroke-dashoffset:0" /></g><g
         id="path544573"
         transform="matrix(1.22,0,0,1.22,21.36,131.12)"><path
           id="path21"
           d="m 520.92,498.42 v 48.78 h 17.1 v -48.78 z m 0.99,-8.01 c 1.89,1.8 4.41,2.61 7.56,2.61 3.06,0 5.58,-0.81 7.56,-2.61 1.89,-1.8 2.88,-4.05 2.88,-6.75 0,-2.52 -0.99,-4.68 -2.88,-6.3 -1.98,-1.62 -4.5,-2.52 -7.56,-2.52 -3.15,0 -5.67,0.9 -7.56,2.61 -1.98,1.8 -2.88,3.96 -2.88,6.48 0,2.61 0.9,4.77 2.88,6.48 z"
           transform="translate(-529.47,-511.02)"
           style="opacity:1;fill:#85859c;fill-rule:nonzero;stroke:none;stroke-width:0;stroke-linecap:butt;stroke-linejoin:miter;stroke-miterlimit:2;stroke-dasharray:none;stroke-dashoffset:0" /></g><g
         id="path544575"
         transform="matrix(1.22,0,0,1.22,78.65,155.74)"><path
           id="path24"
           d="m 591.79,500.76 c -3.6,-2.07 -7.65,-3.15 -12.06,-3.15 -6.48,0 -11.25,1.89 -14.4,5.67 v -4.86 h -16.29 v 66.24 h 17.1 v -21.78 c 3.33,3.42 7.83,5.13 13.59,5.13 4.41,0 8.46,-0.99 12.06,-3.06 3.6,-2.07 6.48,-5.04 8.64,-8.82 2.16,-3.78 3.24,-8.28 3.24,-13.32 0,-5.04 -1.08,-9.45 -3.24,-13.23 -2.16,-3.78 -5.04,-6.75 -8.64,-8.82 z m -8.28,30.6 c -1.98,2.07 -4.41,3.06 -7.38,3.06 -3.06,0 -5.49,-0.99 -7.38,-3.06 -1.98,-2.07 -2.88,-4.95 -2.88,-8.55 0,-3.6 0.9,-6.39 2.88,-8.46 1.89,-2.07 4.32,-3.15 7.38,-3.15 2.97,0 5.4,1.08 7.38,3.15 1.89,2.07 2.88,4.86 2.88,8.46 0,3.6 -0.99,6.48 -2.88,8.55 z"
           transform="translate(-576.36,-531.13)"
           style="opacity:1;fill:#85859c;fill-rule:nonzero;stroke:none;stroke-width:0;stroke-linecap:butt;stroke-linejoin:miter;stroke-miterlimit:2;stroke-dasharray:none;stroke-dashoffset:0" /></g><g
         id="path544577"
         transform="matrix(1.22,0,0,1.22,150.41,145.58)"><path
           id="path27"
           d="m 661.21,527.13 c 0.18,-2.7 0.27,-4.05 0.27,-4.23 0,-5.22 -1.17,-9.72 -3.51,-13.5 -2.34,-3.78 -5.4,-6.75 -9.36,-8.73 -3.96,-1.98 -8.37,-3.06 -13.23,-3.06 -5.13,0 -9.72,1.08 -13.77,3.24 -4.14,2.16 -7.29,5.22 -9.63,9 -2.34,3.78 -3.42,8.1 -3.42,12.87 0,4.86 1.17,9.27 3.51,13.05 2.34,3.87 5.76,6.84 10.08,9 4.32,2.16 9.27,3.24 15.03,3.24 9.09,0 16.02,-2.61 20.79,-7.92 l -9,-9.36 c -1.8,1.53 -3.51,2.61 -5.22,3.24 -1.71,0.72 -3.69,0.99 -6.03,0.99 -3.15,0 -5.76,-0.63 -7.83,-1.98 -2.07,-1.35 -3.42,-3.33 -4.14,-5.85 z m -32.4,-15.12 c 1.8,-1.44 3.96,-2.25 6.66,-2.25 2.61,0 4.77,0.81 6.57,2.25 1.8,1.53 2.88,3.6 3.42,6.12 h -19.98 c 0.45,-2.52 1.53,-4.59 3.33,-6.12 z"
           transform="translate(-635.02,-522.81)"
           style="opacity:1;fill:#85859c;fill-rule:nonzero;stroke:none;stroke-width:0;stroke-linecap:butt;stroke-linejoin:miter;stroke-miterlimit:2;stroke-dasharray:none;stroke-dashoffset:0" /></g><g
         id="path544579"
         transform="matrix(1.22,0,0,1.22,222.52,135.04)"><path
           id="path30"
           d="m 721.29,480.42 h -17.1 v 22.23 c -3.24,-3.33 -7.74,-5.04 -13.5,-5.04 -4.5,0 -8.55,1.08 -12.15,3.06 -3.69,2.07 -6.57,5.04 -8.73,8.82 -2.16,3.78 -3.15,8.19 -3.15,13.23 0,5.04 0.99,9.54 3.15,13.32 2.16,3.87 5.04,6.84 8.73,8.91 3.6,2.07 7.65,3.06 12.15,3.06 6.3,0 11.07,-1.89 14.31,-5.67 v 4.86 h 16.29 z m -19.71,50.94 c -1.98,2.07 -4.41,3.06 -7.29,3.06 -3.06,0 -5.49,-0.99 -7.38,-3.06 -1.98,-2.07 -2.88,-4.95 -2.88,-8.64 0,-3.6 0.89999,-6.39 2.88,-8.46 1.89,-1.98 4.32,-3.06 7.38,-3.06 2.97,0 5.4,1.08 7.29,3.06 1.89,2.07 2.88,4.86 2.88,8.46 0,3.69 -0.99,6.57 -2.88,8.64 z"
           transform="translate(-693.97,-514.22)"
           style="opacity:1;fill:#85859c;fill-rule:nonzero;stroke:none;stroke-width:0;stroke-linecap:butt;stroke-linejoin:miter;stroke-miterlimit:2;stroke-dasharray:none;stroke-dashoffset:0" /></g><g
         id="icon"
         transform="matrix(1.22,0,0,1.22,-0.52,-90.45)"><path
           id="path33"
           d="m 418.44,242.84 -22.269,-0.019 -0.39027,0.12548 c -0.2142,0.0684 -0.58203,0.22689 -0.81741,0.35237 -0.23537,0.12548 -0.62094,0.42207 -0.85771,0.65783 -0.24235,0.24082 -0.53628,0.63121 -0.67368,0.89359 -0.13397,0.25603 -0.3023,0.65656 -0.37353,0.88851 l -0.12967,0.42335 v 22.833 l 0.12403,0.98663 c 0.0684,0.54264 0.20014,1.3524 0.29318,1.7998 0.093,0.44679 0.26991,1.1607 0.39324,1.5856 0.12333,0.42495 0.36858,1.1374 0.54405,1.5828 0.17547,0.44539 0.50811,1.1868 0.73856,1.647 0.22975,0.46019 0.6258,1.172 0.87879,1.5815 0.253,0.40946 0.63707,0.98451 0.85273,1.2776 0.21565,0.29318 0.62016,0.80199 0.89924,1.1318 0.27837,0.32982 0.90487,0.9831 1.3911,1.4532 0.48626,0.47006 1.2594,1.1374 1.7189,1.4827 0.45878,0.34532 1.1332,0.81256 1.4983,1.0388 0.36505,0.22551 1.0606,0.611 1.5468,0.85625 0.48556,0.24525 2.6992,1.1691 4.9197,2.0536 l 4.036,1.6074 0.024,32.241 0.0233,32.241 0.11768,1.2685 c 0.0648,0.69769 0.16702,1.728 0.22833,2.2904 0.0606,0.56166 0.20578,1.6688 0.32206,2.4594 0.11557,0.79071 0.30656,1.9479 0.42284,2.5723 0.11699,0.62368 0.30656,1.5623 0.42213,2.086 0.11557,0.52291 0.38126,1.6173 0.59056,2.4313 0.20931,0.81396 0.53912,2.0029 0.73363,2.6427 0.1938,0.63918 0.54758,1.7337 0.78649,2.4313 0.2382,0.69769 0.69627,1.9345 1.0176,2.7484 0.32206,0.81396 0.7153,1.7787 0.87458,2.1438 0.15927,0.36505 0.27836,0.67442 0.26498,0.68852 -0.0141,0.0134 -0.51305,0.20931 -1.11,0.43483 -0.5969,0.22621 -1.5927,0.64059 -2.2128,0.92177 -0.62016,0.28049 -1.6019,0.76464 -2.1819,1.0754 -0.57999,0.31079 -1.5096,0.84567 -2.0655,1.1882 -0.55603,0.3432 -1.4095,0.90205 -1.8964,1.2431 -0.48697,0.34108 -1.3178,0.96548 -1.8457,1.3869 -0.52855,0.42213 -1.3643,1.1304 -1.8584,1.5751 -0.49402,0.44398 -1.315,1.2403 -1.8246,1.7696 -0.50952,0.52926 -1.2586,1.3588 -1.6646,1.8436 -0.40593,0.48415 -1.0486,1.2932 -1.4271,1.7971 -0.37844,0.50389 -0.98874,1.3756 -1.3558,1.938 -0.36717,0.56167 -0.85836,1.3544 -1.0916,1.7618 -0.23327,0.40662 -0.61664,1.1043 -0.85131,1.5504 -0.23538,0.44539 -0.60678,1.2065 -0.82595,1.6914 -0.21917,0.48415 -0.55462,1.2713 -0.7456,1.7478 -0.19028,0.4771 -0.47429,1.2382 -0.63074,1.6914 -0.15644,0.45384 -0.41086,1.2629 -0.5659,1.7978 -0.15504,0.5356 -0.3735,1.3602 -0.48626,1.8323 -0.11276,0.47287 -0.30092,1.3897 -0.41791,2.0381 -0.11698,0.64835 -0.27977,1.7428 -0.36082,2.4313 -0.0916,0.7752 -0.16349,1.9246 -0.18816,3.0155 -0.0345,1.5399 -0.0247,1.8161 0.0817,2.1847 0.067,0.23187 0.23256,0.63285 0.36787,0.89149 0.13742,0.26286 0.4327,0.6568 0.66878,0.89289 0.23609,0.23608 0.63003,0.53137 0.89289,0.66879 0.25864,0.13531 0.66033,0.30444 0.89289,0.37563 l 0.42284,0.12966 h 52.644 l 0.45031,-0.12409 c 0.24737,-0.0683 0.63707,-0.2248 0.86611,-0.34672 0.22904,-0.12193 0.56308,-0.35096 0.74208,-0.50881 0.17971,-0.15716 1.0233,-1.1593 1.876,-2.2255 0.85201,-1.067 1.5554,-1.9479 1.5624,-1.9578 0.007,-0.0101 0.24806,0.079 0.53488,0.19732 0.28754,0.11915 1.141,0.44822 1.8964,0.73223 0.75546,0.2833 1.9133,0.69204 2.5723,0.90769 0.65892,0.21635 1.5786,0.50388 2.0437,0.63989 0.46512,0.13601 1.4645,0.40593 2.2199,0.59973 0.75547,0.1938 1.9014,0.46441 2.5455,0.60183 0.64412,0.13742 1.7858,0.35801 2.537,0.49121 0.75124,0.13248 2,0.32275 2.7752,0.42213 0.7752,0.0994 1.9168,0.22763 2.537,0.2847 0.62016,0.057 1.7773,0.14447 2.5723,0.19522 1.1558,0.0726 10.189,0.0909 45.138,0.0909 34.838,0 43.972,-0.0184 45.067,-0.0909 0.75617,-0.0493 1.8978,-0.13742 2.537,-0.19451 0.6399,-0.057 1.6864,-0.16913 2.3256,-0.24877 0.6399,-0.0796 1.8288,-0.25582 2.6427,-0.39113 0.81396,-0.1353 2.0825,-0.3735 2.8189,-0.52854 0.73644,-0.15574 2.0049,-0.45315 2.8189,-0.66104 0.81396,-0.20719 2.0035,-0.5356 2.6427,-0.72869 0.6399,-0.1938 1.7181,-0.54123 2.3961,-0.77239 0.67866,-0.23114 1.4884,-0.51586 1.8006,-0.63284 0.3122,-0.11699 1.1367,-0.44187 1.8323,-0.72234 0.69557,-0.28049 1.7802,-0.74349 2.4109,-1.0289 0.63002,-0.28472 1.6921,-0.79141 2.3608,-1.1262 0.66807,-0.33405 1.7068,-0.8788 2.3072,-1.21 0.60113,-0.33122 1.5603,-0.88233 2.1318,-1.2241 0.57154,-0.34179 1.4912,-0.91332 2.0437,-1.2699 0.55251,-0.3573 1.4328,-0.94927 1.9556,-1.3157 0.52361,-0.36646 1.253,-0.89008 1.6209,-1.1635 0.36857,-0.27273 1.1297,-0.86047 1.6914,-1.3059 0.56238,-0.44469 1.4376,-1.1649 1.9465,-1.6005 0.50811,-0.43553 1.3326,-1.167 1.8315,-1.6258 0.49964,-0.45879 1.3996,-1.3256 2.0007,-1.9261 0.60043,-0.60113 1.4574,-1.4904 1.9028,-1.976 0.44609,-0.48556 1.1769,-1.3101 1.6237,-1.8323 0.44751,-0.5215 1.0677,-1.2657 1.377,-1.6533 0.31008,-0.3876 0.81748,-1.0381 1.1283,-1.4447 0.31008,-0.40734 0.83582,-1.1205 1.1678,-1.5856 0.33122,-0.46512 0.88866,-1.2741 1.2375,-1.7971 0.34884,-0.52362 0.87669,-1.3432 1.1734,-1.8218 0.2974,-0.47922 0.77309,-1.2721 1.0571,-1.7618 0.28472,-0.49049 0.75829,-1.3354 1.0522,-1.878 0.29458,-0.54264 0.85132,-1.6363 1.2368,-2.4313 0.38549,-0.79494 0.91403,-1.9358 1.1741,-2.537 0.26004,-0.60113 0.70473,-1.6794 0.98803,-2.3961 0.28259,-0.71742 0.75687,-2.0176 1.0529,-2.8894 0.29598,-0.87246 0.71037,-2.1805 0.92108,-2.907 0.21072,-0.72728 0.54054,-1.9641 0.73222,-2.7484 0.19168,-0.78507 0.4616,-1.9895 0.59972,-2.6766 0.13813,-0.68781 0.34391,-1.8133 0.45667,-2.5018 0.11344,-0.68923 0.28824,-1.9345 0.38831,-2.7675 0.1,-0.8337 0.22903,-2.1023 0.28753,-2.8189 0.0578,-0.71742 0.14024,-2.5568 0.18252,-4.0874 0.0493,-1.7802 0.0641,-6.5068 0.0416,-13.108 -0.0218,-6.4095 -0.0641,-10.739 -0.11204,-11.417 -0.043,-0.60113 -0.12686,-1.6159 -0.18747,-2.2551 -0.0606,-0.6399 -0.17266,-1.6547 -0.24876,-2.2551 -0.0762,-0.60114 -0.25018,-1.74 -0.38549,-2.5314 -0.13601,-0.79211 -0.35871,-1.9578 -0.49472,-2.5906 -0.13671,-0.63285 -0.39113,-1.7139 -0.5659,-2.4017 -0.17477,-0.68782 -0.44468,-1.6787 -0.60113,-2.2015 -0.15575,-0.52362 -0.42707,-1.3954 -0.60254,-1.938 -0.17549,-0.54264 -0.55745,-1.6209 -0.8492,-2.3961 -0.29106,-0.77521 -0.75125,-1.9331 -1.0219,-2.5723 -0.27062,-0.63918 -0.76393,-1.7337 -1.0952,-2.4313 -0.33192,-0.69768 -0.88796,-1.8076 -1.2368,-2.4666 -0.34884,-0.65892 -0.90275,-1.6583 -1.2312,-2.2199 -0.32841,-0.56238 -0.91967,-1.5306 -1.3143,-2.153 -0.39394,-0.62156 -1.036,-1.5892 -1.4263,-2.1494 -0.39043,-0.56026 -1.0289,-1.4425 -1.42,-1.962 -0.39043,-0.51868 -1.0987,-1.4193 -1.573,-2.0007 -0.47427,-0.58141 -1.2579,-1.5046 -1.7414,-2.0514 -0.48345,-0.54688 -1.6265,-1.7414 -2.5406,-2.6548 -0.91403,-0.91334 -2.074,-2.0253 -2.5778,-2.4707 -0.50388,-0.4461 -1.3285,-1.1536 -1.8323,-1.5722 -0.50388,-0.41931 -1.5821,-1.2615 -2.3961,-1.8711 -0.81397,-0.60959 -2.0508,-1.4877 -2.7484,-1.9514 -0.69768,-0.46372 -1.6328,-1.0663 -2.079,-1.3382 -0.44539,-0.27273 -1.0007,-0.60818 -1.2333,-0.74561 -0.23256,-0.13813 -0.89853,-0.51163 -1.4799,-0.83017 -0.58141,-0.31854 -1.5504,-0.82594 -2.1536,-1.1283 -0.60324,-0.30232 -1.4595,-0.71389 -1.9028,-0.91544 -0.44327,-0.20156 -1.327,-0.58563 -1.9634,-0.85413 -0.63638,-0.2685 -1.7935,-0.72164 -2.5723,-1.007 -0.77803,-0.28542 -1.859,-0.66245 -2.4017,-0.83792 -0.54264,-0.17547 -1.4306,-0.4461 -1.9732,-0.60183 -0.54264,-0.15576 -1.5096,-0.41439 -2.1494,-0.57507 -0.63918,-0.15997 -1.7492,-0.41367 -2.4666,-0.56378 -0.71671,-0.1494 -1.7794,-0.35237 -2.3608,-0.45032 -0.5814,-0.0973 -1.5482,-0.24173 -2.1494,-0.31994 -0.60043,-0.0782 -1.3848,-0.17478 -1.742,-0.21424 -0.3566,-0.0395 -1.2693,-0.11839 -2.0269,-0.17618 -0.75688,-0.0571 -2.1621,-0.12473 -3.122,-0.15081 -1.5067,-0.0409 -1.8182,-0.031 -2.2862,0.0733 -0.29811,0.0662 -0.74068,0.21918 -0.9824,0.34039 -0.26921,0.1339 -0.63637,0.41367 -0.94504,0.71811 -0.28965,0.28542 -0.58845,0.66316 -0.6998,0.88444 -0.1071,0.21213 -0.26216,0.56097 -0.34391,0.7752 l -0.1494,0.38901 -0.0218,11.769 c -0.0141,7.7105 0.004,12.32 0.0542,13.367 0.0423,0.8795 0.13883,2.148 0.21564,2.8189 0.0768,0.67161 0.21846,1.7034 0.31501,2.2932 0.0966,0.58985 0.25582,1.4461 0.35448,1.9028 0.098,0.45667 0.30234,1.3059 0.45386,1.8873 0.15151,0.5814 0.43974,1.5645 0.64059,2.1847 0.20085,0.62016 0.50529,1.5046 0.67654,1.9661 0.17195,0.46089 0.48274,1.2382 0.69204,1.7266 0.20861,0.48838 0.55252,1.2544 0.76323,1.7019 0.21071,0.44821 0.59761,1.2093 0.85906,1.6914 0.26217,0.48274 0.68218,1.2262 0.93448,1.6526 0.25229,0.42637 0.75194,1.2192 1.1092,1.7618 0.358,0.54264 1.0007,1.4524 1.4285,2.0212 0.42706,0.56872 1.0381,1.3461 1.3566,1.7266 0.31854,0.38056 1.0219,1.1734 1.5623,1.7618 0.54053,0.58845 1.4651,1.5138 2.0536,2.0564 0.58845,0.54193 1.4186,1.2762 1.845,1.6314 0.42636,0.35518 1.1388,0.92038 1.5835,1.2558 0.44398,0.33615 1.3813,0.99367 2.0817,1.4616 0.7005,0.46724 1.5496,1.0064 1.8873,1.198 0.33686,0.19099 0.61311,0.36294 0.61311,0.38267 0,0.019 -0.26144,0.18323 -0.5814,0.36434 -0.31923,0.18183 -1.1184,0.6843 -1.7753,1.1177 -0.65752,0.43341 -1.609,1.0987 -2.1142,1.4785 -0.506,0.38055 -1.2685,0.98168 -1.6949,1.3362 -0.42636,0.35448 -1.2446,1.0768 -1.8182,1.604 -0.57364,0.52784 -1.499,1.4532 -2.0556,2.0572 -0.55745,0.60395 -1.2889,1.4299 -1.6258,1.8358 -0.33687,0.40593 -0.94012,1.1734 -1.3404,1.7054 -0.39958,0.53207 -1.0261,1.4207 -1.3918,1.9754 -0.36504,0.55392 -0.87104,1.3566 -1.1233,1.783 -0.2523,0.42636 -0.67231,1.1698 -0.93448,1.6526 -0.26145,0.48203 -0.64835,1.2431 -0.85906,1.6914 -0.21071,0.4475 -0.55462,1.2135 -0.76322,1.7019 -0.20931,0.48838 -0.5201,1.2657 -0.69205,1.7266 -0.17125,0.4616 -0.47569,1.3461 -0.67654,1.9662 -0.20085,0.62016 -0.48907,1.6033 -0.64059,2.1847 -0.15152,0.5814 -0.35589,1.4306 -0.45386,1.8873 -0.0986,0.45667 -0.25792,1.3129 -0.35448,1.9028 -0.0966,0.58986 -0.23819,1.6216 -0.31501,2.2932 -0.0768,0.6709 -0.17335,1.9394 -0.21564,2.8189 -0.0501,1.0472 -0.0683,5.6568 -0.0543,13.367 l 0.0218,11.769 0.1494,0.389 c 0.0818,0.21425 0.2368,0.56309 0.34462,0.77521 0.10711,0.21213 0.40522,0.59338 0.66103,0.8485 0.25653,0.2544 0.64554,0.56448 0.86541,0.68922 0.21988,0.12472 0.66385,0.29388 0.98662,0.37562 l 0.58705,0.1494 1.7618,-0.0451 c 0.96901,-0.0247 2.3961,-0.093 3.1713,-0.15152 0.7752,-0.0592 1.8379,-0.15575 2.3608,-0.21494 0.52362,-0.0592 1.5067,-0.18816 2.1847,-0.28613 0.67865,-0.098 1.7406,-0.27342 2.3608,-0.38901 0.62016,-0.11559 1.556,-0.30515 2.079,-0.42072 0.52362,-0.11559 1.4588,-0.33968 2.079,-0.49754 0.62016,-0.15786 1.802,-0.48979 2.6259,-0.73714 0.82453,-0.24807 1.998,-0.62721 2.6075,-0.84356 0.61029,-0.21636 1.7033,-0.62792 2.4292,-0.91615 0.72587,-0.28753 1.7407,-0.70967 2.2551,-0.938 0.51445,-0.22833 1.4271,-0.65117 2.0275,-0.93941 0.60114,-0.28823 1.6829,-0.84427 2.4052,-1.2354 0.72235,-0.39183 1.7527,-0.97253 2.2904,-1.2911 0.53771,-0.31924 1.6173,-1.0007 2.3996,-1.5144 0.78295,-0.51445 1.8929,-1.2762 2.4666,-1.6935 0.57435,-0.4172 1.647,-1.2389 2.3834,-1.8274 0.73645,-0.58774 1.7992,-1.4758 2.3608,-1.9732 0.56238,-0.49684 1.6836,-1.556 2.4919,-2.3538 0.80832,-0.79704 1.9113,-1.9366 2.4503,-2.5307 0.53981,-0.5948 1.3157,-1.4827 1.7244,-1.9732 0.40945,-0.4912 1.1297,-1.394 1.6019,-2.0063 0.47146,-0.61312 1.2269,-1.642 1.6787,-2.2862 0.45174,-0.64483 1.086,-1.5912 1.4095,-2.1029 0.32347,-0.51235 0.59762,-0.9225 0.60959,-0.91122 0.0114,0.0101 -0.0782,0.41086 -0.19873,0.88937 -0.12117,0.47781 -0.38971,1.4566 -0.59761,2.1755 -0.20861,0.71813 -0.57365,1.8767 -0.81256,2.5744 -0.23889,0.69769 -0.66526,1.8549 -0.94786,2.5723 -0.28259,0.71671 -0.71037,1.7478 -0.95138,2.2904 -0.24102,0.54264 -0.70333,1.5257 -1.0282,2.1847 -0.32418,0.65893 -0.83158,1.642 -1.1276,2.1847 -0.29598,0.54264 -0.84074,1.494 -1.2114,2.1142 -0.37068,0.62016 -0.99014,1.6033 -1.377,2.1847 -0.38689,0.5814 -0.84849,1.2629 -1.0254,1.5152 -0.17689,0.25159 -0.65328,0.90205 -1.0585,1.4447 -0.40522,0.54264 -1.0719,1.396 -1.4827,1.8964 -0.41015,0.50036 -1.1092,1.3249 -1.5526,1.8323 -0.44398,0.5074 -1.5223,1.6391 -2.3961,2.5152 -0.87457,0.87599 -1.9324,1.8986 -2.3517,2.272 -0.4186,0.37351 -1.2206,1.0627 -1.7822,1.5322 -0.56097,0.46934 -1.6138,1.2996 -2.339,1.8442 -0.72518,0.54476 -1.9528,1.4102 -2.728,1.9232 -0.77521,0.51305 -1.8056,1.1692 -2.2904,1.4588 -0.48414,0.28894 -1.3087,0.76463 -1.8323,1.0557 -0.52291,0.29176 -1.5223,0.81608 -2.2199,1.1649 -0.69769,0.34884 -1.8232,0.8802 -2.5018,1.1811 -0.67795,0.30021 -1.7562,0.75054 -2.3953,1 -0.63849,0.25018 -1.8076,0.67372 -2.5976,0.94222 -0.79001,0.26851 -2.043,0.66175 -2.7851,0.87386 -0.74137,0.21213 -1.8238,0.49966 -2.4052,0.63849 -0.5814,0.13954 -1.6787,0.37703 -2.439,0.52714 -0.76039,0.15081 -2.0445,0.36999 -2.8542,0.48697 -0.80973,0.11762 -1.9317,0.26005 -2.4941,0.31783 -0.56167,0.057 -1.5609,0.14517 -2.2199,0.19521 -0.96407,0.074 -9.8606,0.0916 -45.491,0.0916 -35.783,0 -44.522,-0.0176 -45.491,-0.0923 -0.65892,-0.0501 -1.7689,-0.15504 -2.4666,-0.23185 -0.69769,-0.0768 -1.8076,-0.21988 -2.4666,-0.31784 -0.65892,-0.098 -1.8323,-0.30444 -2.6075,-0.45948 -0.7752,-0.15433 -1.9677,-0.42001 -2.6505,-0.58986 -0.68288,-0.16913 -1.6977,-0.43975 -2.2551,-0.60043 -0.55744,-0.16068 -1.6167,-0.49331 -2.3531,-0.73927 -0.73644,-0.24594 -1.4412,-0.49048 -1.5659,-0.54334 l -0.22622,-0.0966 3.8704,-4.8373 3.8704,-4.8373 -2.7985,-2.2369 c -1.5384,-1.2298 -2.931,-2.3446 -3.0931,-2.4757 l -0.29528,-0.23961 -7.3334,9.1664 -7.3341,9.1664 h -9.974 v -7.893 h -7.894 v 7.893 h -7.9624 v -7.893 h -7.894 v 7.893 h -11.66 l 0.0472,-0.36998 c 0.0261,-0.20366 0.14166,-0.84568 0.25652,-1.4271 0.11488,-0.5814 0.28894,-1.3588 0.3876,-1.7266 0.098,-0.36858 0.28965,-1.0346 0.42565,-1.4799 0.13672,-0.4461 0.45527,-1.334 0.70755,-1.9732 0.25299,-0.63989 0.67654,-1.6068 0.94152,-2.1494 0.26499,-0.54265 0.68571,-1.3404 0.93448,-1.7724 0.24947,-0.4327 0.63497,-1.067 0.85765,-1.4095 0.2227,-0.3432 0.64695,-0.95702 0.94223,-1.3637 0.29527,-0.40734 0.85131,-1.1177 1.2354,-1.5793 0.38408,-0.46159 1.0508,-1.203 1.4807,-1.647 0.4306,-0.44398 1.1311,-1.1163 1.5575,-1.4934 0.42636,-0.37704 1.036,-0.8929 1.3552,-1.1473 0.31853,-0.25441 0.94505,-0.72094 1.3911,-1.0381 0.44679,-0.31713 1.2326,-0.82875 1.7464,-1.1381 0.51374,-0.30937 1.4574,-0.82594 2.0966,-1.148 0.6399,-0.32206 1.5595,-0.74631 2.0437,-0.94152 0.48486,-0.19521 3.2594,-1.2185 6.1664,-2.2734 2.907,-1.055 5.6174,-2.0599 6.0233,-2.2326 0.40522,-0.17337 0.9542,-0.42425 1.2192,-0.55815 0.26568,-0.1332 0.82172,-0.44398 1.2361,-0.69063 0.41438,-0.24666 1.0543,-0.66175 1.4221,-0.9225 0.36787,-0.26075 0.90699,-0.66667 1.198,-0.90135 0.29106,-0.23467 0.95844,-0.85695 1.4827,-1.3827 0.52431,-0.52574 1.2199,-1.2883 1.5455,-1.6955 0.32629,-0.40733 0.86048,-1.148 1.1868,-1.6462 0.32629,-0.49824 0.79563,-1.2932 1.043,-1.7668 0.24665,-0.47287 0.58916,-1.1945 0.7604,-1.6025 0.17054,-0.40805 0.44186,-1.1459 0.60183,-1.6385 0.16068,-0.49262 0.36928,-1.2185 0.46372,-1.6132 0.0944,-0.39534 0.23537,-1.1149 0.31219,-1.5991 0.0775,-0.48485 0.17266,-1.3249 0.21283,-1.8675 0.0402,-0.54264 0.0726,-1.074 0.0733,-1.1804 v -0.2028 h -7.9416 l -0.0444,0.79282 c -0.0247,0.43622 -0.0916,1.0564 -0.1494,1.3784 -0.0578,0.32206 -0.18323,0.88021 -0.27908,1.2396 -0.0951,0.35941 -0.29106,0.95209 -0.43482,1.3172 -0.14306,0.36436 -0.35517,0.85132 -0.47005,1.0811 -0.11557,0.23044 -0.38337,0.6998 -0.5962,1.043 -0.21213,0.34391 -0.57929,0.86893 -0.81608,1.1677 -0.23609,0.29811 -0.62157,0.74561 -0.85696,0.99367 -0.23468,0.24737 -0.69909,0.67795 -1.031,0.95562 -0.33194,0.27837 -0.87105,0.68147 -1.198,0.89642 -0.32699,0.21564 -0.91263,0.55109 -1.3016,0.7463 -0.38901,0.19521 -1.2685,0.56378 -1.9549,0.8196 -0.6857,0.25582 -1.2629,0.46512 -1.2819,0.46512 -0.0197,0 -0.0803,-0.10292 -0.13531,-0.22903 -0.0543,-0.12612 -0.30444,-0.70473 -0.55462,-1.2861 -0.25089,-0.58141 -0.64764,-1.5645 -0.88162,-2.1847 -0.23468,-0.62016 -0.60607,-1.6666 -0.82454,-2.3256 -0.21917,-0.65892 -0.57224,-1.8097 -0.78506,-2.5574 -0.21213,-0.74843 -0.50952,-1.8901 -0.65963,-2.537 -0.15011,-0.64765 -0.38549,-1.7484 -0.52221,-2.4462 -0.13743,-0.69768 -0.34461,-1.9345 -0.46089,-2.7484 -0.11557,-0.81397 -0.26075,-1.9873 -0.32136,-2.6075 -0.0606,-0.62016 -0.14729,-1.5399 -0.19169,-2.0437 -0.0585,-0.66457 -0.0916,-10.157 -0.12121,-34.532 l -0.038,-33.62 -0.16858,-0.42335 c -0.0913,-0.23195 -0.308,-0.63628 -0.47912,-0.89612 -0.17111,-0.2611 -0.46137,-0.60079 -0.64262,-0.7567 -0.18252,-0.1559 -0.50446,-0.37644 -0.71867,-0.48925 -0.21283,-0.11347 -2.6392,-1.1001 -5.3912,-2.1924 -2.752,-1.0923 -5.2573,-2.1043 -5.5674,-2.2488 -0.31008,-0.14447 -0.82735,-0.42636 -1.1494,-0.62721 -0.32206,-0.20014 -0.78225,-0.51446 -1.0219,-0.6984 -0.24032,-0.18394 -0.68147,-0.56871 -0.98098,-0.85413 -0.29951,-0.28612 -0.7153,-0.7301 -0.92461,-0.98733 -0.2093,-0.25722 -0.53771,-0.70613 -0.72939,-0.99648 -0.19169,-0.29106 -0.45032,-0.71318 -0.57576,-0.9387 -0.12474,-0.22551 -0.36575,-0.74913 -0.5356,-1.1628 -0.16913,-0.41368 -0.39253,-1.086 -0.49543,-1.4926 -0.10359,-0.40734 -0.23185,-1.0733 -0.28612,-1.4799 -0.0803,-0.60043 -0.0987,-2.42 -0.10007,-9.6372 l -10e-4,-8.8978 h 18.8 c 12.016,0 19.206,0.0261 19.926,0.0719 0.61945,0.0395 1.6181,0.1339 2.2185,0.20861 0.60113,0.0754 1.5363,0.21846 2.079,0.31784 0.54264,0.10007 1.5102,0.30937 2.1494,0.46583 0.63989,0.15575 1.8133,0.50107 2.6075,0.76604 0.79493,0.26498 1.9408,0.68923 2.5475,0.94293 0.60678,0.2537 1.5581,0.68852 2.1142,0.96619 0.55603,0.27837 1.3764,0.71318 1.8218,0.96689 0.4461,0.25299 1.3108,0.78789 1.9226,1.1889 0.6124,0.40029 1.4334,0.97112 1.826,1.2678 0.39253,0.29739 1.0966,0.85906 1.5659,1.2488 0.46864,0.38972 1.3397,1.1854 1.9358,1.7689 0.59621,0.58281 1.4475,1.4722 1.8922,1.976 0.44469,0.50388 1.215,1.4552 1.7111,2.1142 0.49613,0.65892 1.1854,1.642 1.5306,2.1847 0.34603,0.54265 7.9162,13.576 16.822,28.965 8.9063,15.387 16.327,28.151 16.488,28.364 0.16209,0.21213 0.49895,0.53348 0.74983,0.71459 0.32698,0.23608 8.3045,4.0219 28.256,13.409 15.291,7.1946 27.833,13.079 27.872,13.079 0.0388,-7.1e-4 0.62368,-1.1825 1.2996,-2.6251 0.67654,-1.4433 1.4292,-3.0466 1.6737,-3.5624 l 0.44398,-0.93941 -0.72235,-0.33898 c -0.39675,-0.18675 -3.401,-1.5997 -6.6766,-3.1396 -3.2748,-1.5399 -8.3489,-3.9253 -11.276,-5.3009 l -8.2101,-3.8598 c -1.5892,-0.74772 -4.7605,-2.2397 -7.0473,-3.3144 -2.2868,-1.0754 -4.4117,-2.0734 -4.7217,-2.2178 -0.31008,-0.14447 -2.6724,-1.2551 -5.2502,-2.4673 -2.5772,-1.2128 -5.9867,-2.8161 -7.5758,-3.5624 l -2.8848,-1.3524 -15.906,-27.473 c -8.7496,-15.11 -16.168,-27.885 -16.488,-28.389 -0.32068,-0.50319 -0.85937,-1.3119 -1.1991,-1.796 -0.33969,-0.48546 -0.88725,-1.2269 -1.2155,-1.649 -0.32828,-0.42208 -0.90626,-1.1357 -1.2852,-1.5856 -0.37771,-0.44997 -1.45,-1.5806 -2.3816,-2.5122 -0.93161,-0.93161 -2.1548,-2.0774 -2.7162,-2.5451 -0.5615,-0.46644 -1.4348,-1.1598 -1.938,-1.5375 -0.50446,-0.37898 -1.4589,-1.0482 -2.1218,-1.488 -0.66417,-0.43856 -1.7099,-1.0875 -2.3259,-1.4399 -0.616,-0.35363 -1.7225,-0.93795 -2.459,-1.3005 -0.73644,-0.36222 -1.7513,-0.83158 -2.2551,-1.043 -0.50388,-0.21142 -1.3918,-0.56026 -1.9732,-0.77591 -0.5814,-0.21494 -1.5194,-0.53488 -2.0845,-0.71037 -0.5653,-0.17618 -1.5235,-0.44743 -2.1281,-0.60333 -0.6046,-0.1559 -1.649,-0.39419 -2.3195,-0.52728 -0.67051,-0.13436 -1.6794,-0.31054 -2.2409,-0.39166 -0.56151,-0.0798 -1.4665,-0.199 -2.009,-0.26364 l -0.98662,-0.11768 z m 153.58,31.852 c 0.37774,0.0247 1.1156,0.0944 1.6385,0.15433 0.52361,0.0599 1.475,0.18887 2.1142,0.28612 0.63989,0.098 1.7216,0.28754 2.4052,0.42143 0.68358,0.13319 1.7618,0.3707 2.3961,0.52715 0.63425,0.15575 1.7406,0.45455 2.4574,0.66385 0.71741,0.2093 1.7794,0.54405 2.3608,0.7442 0.5814,0.19944 1.6498,0.5969 2.3743,0.88372 0.72447,0.28683 1.8824,0.77732 2.5723,1.0902 0.69063,0.3122 1.7998,0.84991 2.4652,1.1938 0.66527,0.34391 1.6484,0.87739 2.1847,1.1861 0.53631,0.30796 1.2446,0.72728 1.5737,0.93024 0.32982,0.20367 1.0747,0.68783 1.6561,1.0761 0.58141,0.38832 1.4694,1.0071 1.9732,1.3742 0.50388,0.36786 1.3602,1.024 1.9028,1.4595 0.54264,0.43482 1.3989,1.1501 1.9028,1.5884 0.50388,0.43834 1.6787,1.5603 2.611,2.4933 0.93236,0.93377 2.055,2.1092 2.4947,2.6131 0.43975,0.50388 1.1924,1.4073 1.673,2.0085 0.48063,0.60043 1.284,1.6674 1.7858,2.37 0.50176,0.70262 1.241,1.7971 1.6434,2.4313 0.40169,0.63426 0.97817,1.5815 1.2798,2.1051 0.30162,0.52361 0.85906,1.554 1.2382,2.2904 0.37915,0.73644 0.86611,1.7266 1.0825,2.2009 0.21636,0.47428 0.60114,1.3622 0.85555,1.9732 0.2544,0.611 0.66385,1.666 0.91051,2.3446 0.24594,0.67795 0.60959,1.7562 0.80832,2.3961 0.19873,0.63919 0.53348,1.8288 0.7442,2.6427 0.21071,0.81396 0.52431,2.1932 0.69697,3.0656 0.17266,0.87175 0.39536,2.1565 0.49402,2.8542 0.0986,0.69769 0.22621,1.728 0.28259,2.2904 0.057,0.56166 0.14025,1.5448 0.18535,2.1847 0.0451,0.63919 0.0825,2.1932 0.0825,3.4532 0,1.2594 -0.0374,2.8133 -0.0825,3.4532 -0.0451,0.63919 -0.12897,1.6223 -0.18535,2.1847 -0.057,0.56166 -0.18463,1.5927 -0.2833,2.2904 -0.0994,0.69768 -0.32135,1.9817 -0.494,2.8542 -0.17197,0.87175 -0.48557,2.2516 -0.69628,3.0656 -0.21072,0.81396 -0.54547,2.0029 -0.7442,2.6427 -0.19873,0.63919 -0.56238,1.7181 -0.80832,2.3961 -0.24666,0.67866 -0.65611,1.7337 -0.91051,2.3446 -0.25441,0.611 -0.63919,1.499 -0.85555,1.9732 -0.21635,0.47428 -0.70331,1.4645 -1.0825,2.2009 -0.37915,0.73644 -0.93588,1.7668 -1.2382,2.2904 -0.30162,0.52291 -0.88091,1.4744 -1.2875,2.1142 -0.40592,0.63919 -1.1459,1.7337 -1.6434,2.4313 -0.49754,0.69769 -1.2974,1.7597 -1.778,2.3608 -0.48063,0.60114 -1.2347,1.5046 -1.6765,2.0085 -0.44116,0.50388 -1.3735,1.4989 -2.0712,2.2108 -0.69839,0.71249 -1.7287,1.7125 -2.2911,2.2227 -0.56167,0.50951 -1.4024,1.2431 -1.8675,1.6294 -0.46513,0.38689 -1.2417,1.0071 -1.7266,1.3784 -0.48415,0.3714 -1.3566,1.0078 -1.938,1.415 -0.5814,0.40662 -1.4059,0.96195 -1.8323,1.234 -0.42636,0.27202 -1.093,0.685 -1.4821,0.91685 -0.38829,0.23256 -1.1698,0.67937 -1.7365,0.99297 -0.56661,0.3143 -1.4122,0.76252 -1.8794,0.99648 -0.46795,0.23468 -1.3671,0.65964 -1.9986,0.94575 -0.63214,0.28541 -1.6244,0.71108 -2.2058,0.94576 -0.58141,0.23396 -1.5575,0.60324 -2.1692,0.81959 -0.61171,0.21706 -1.642,0.55604 -2.2904,0.75336 -0.64835,0.19802 -1.7808,0.51305 -2.5172,0.7005 -0.73644,0.18746 -1.9732,0.46864 -2.7484,0.62509 -0.7752,0.15575 -1.9324,0.36294 -2.5723,0.4595 -0.63919,0.0972 -1.5906,0.22551 -2.1142,0.28541 -0.52291,0.06 -1.2608,0.12967 -1.6385,0.15433 l -0.68711,0.0458 v -11.719 l 5.9374,-0.0176 5.9374,-0.0184 v -7.893 l -5.9197,-0.0176 -5.9197,-0.0184 0.0184,-0.43974 c 0.0101,-0.24242 0.0507,-0.85273 0.0903,-1.3566 0.0402,-0.50388 0.13601,-1.3602 0.21284,-1.9028 0.0768,-0.54264 0.18886,-1.2403 0.24806,-1.5504 0.06,-0.31008 0.22058,-1.0317 0.3573,-1.6033 l 0.24947,-1.0395 h 14.645 v -7.9634 h -5.6378 c -3.1008,0 -5.6378,-0.0148 -5.6378,-0.0324 0,-0.0184 0.16914,-0.31149 0.37632,-0.65187 0.2072,-0.34109 0.49826,-0.80973 0.64695,-1.0423 0.1494,-0.23256 0.5067,-0.75617 0.79493,-1.1628 0.28823,-0.40734 0.8922,-1.2002 1.3412,-1.7618 0.47286,-0.59127 1.4425,-1.6484 2.3002,-2.5089 0.81537,-0.81749 1.8471,-1.7879 2.2925,-2.1565 0.4461,-0.36787 1.1297,-0.9091 1.5208,-1.203 0.39041,-0.29317 1.167,-0.83299 1.7266,-1.198 0.55885,-0.36576 1.3651,-0.86612 1.7915,-1.1114 0.42636,-0.24525 1.3461,-0.72165 2.0437,-1.0585 0.69768,-0.33616 1.7125,-0.78788 2.2551,-1.0028 0.54265,-0.21495 1.494,-0.55533 2.1142,-0.75618 0.62017,-0.20085 1.2664,-0.41579 1.4362,-0.4771 0.17054,-0.0613 0.48767,-0.22693 0.70473,-0.36788 0.21776,-0.14095 0.56448,-0.44115 0.77027,-0.66667 0.20578,-0.22551 0.46441,-0.58985 0.57505,-0.80903 0.11066,-0.21918 0.25371,-0.57929 0.31854,-0.79987 0.0698,-0.24172 0.11623,-0.65399 0.11623,-1.036 0,-0.38196 -0.0465,-0.79423 -0.11623,-1.036 -0.0648,-0.22059 -0.2079,-0.5807 -0.31854,-0.79987 -0.11065,-0.21918 -0.36927,-0.58352 -0.57505,-0.80904 -0.20579,-0.22551 -0.55251,-0.52573 -0.77027,-0.66668 -0.21706,-0.14094 -0.53419,-0.30726 -0.70473,-0.36927 -0.16985,-0.062 -0.67302,-0.22763 -1.1191,-0.36857 -0.44538,-0.14024 -1.1994,-0.39889 -1.6751,-0.57365 -0.47641,-0.17547 -1.3299,-0.52362 -1.8978,-0.77309 -0.56802,-0.24947 -1.4799,-0.68711 -2.0261,-0.97181 -0.54688,-0.28471 -1.3742,-0.74773 -1.8379,-1.0289 -0.46372,-0.28189 -1.1924,-0.75054 -1.6187,-1.043 -0.42636,-0.29175 -1.0127,-0.70825 -1.303,-0.92531 -0.29105,-0.21776 -0.9091,-0.70897 -1.3742,-1.093 -0.46583,-0.38337 -1.499,-1.351 -2.296,-2.1494 -0.79706,-0.79846 -1.7456,-1.8168 -2.1086,-2.2622 -0.36224,-0.44609 -0.87106,-1.0958 -1.1297,-1.4447 -0.25934,-0.34884 -0.69346,-0.9676 -0.96548,-1.3742 -0.27203,-0.40733 -0.67302,-1.0345 -0.89148,-1.3946 -0.21847,-0.35941 -0.39677,-0.66878 -0.39677,-0.68711 0,-0.0176 2.537,-0.0324 5.6378,-0.0324 h 5.6378 v -7.9586 h -14.646 l -0.1804,-0.75759 c -0.0994,-0.4165 -0.24596,-1.0747 -0.32489,-1.4616 -0.0796,-0.3876 -0.20649,-1.1036 -0.2826,-1.5912 -0.0761,-0.48697 -0.18605,-1.3883 -0.24454,-2.0021 -0.0592,-0.61383 -0.1071,-1.3334 -0.1071,-1.5977 v -0.48203 l 5.9021,-0.0176 5.9021,-0.0183 v -7.894 l -5.9374,-0.0183 -5.9374,-0.0176 v -11.72 z m -143.38,-16.09 c -2.1643,0 -3.9564,0.0211 -3.9817,0.0472 -0.0261,0.0254 -0.0472,1.8175 -0.0472,3.9817 v 3.9343 h 7.9634 v -7.96 z"
           transform="translate(-511.86,-330.01)"
           style="opacity:1;fill:#56e4b7;fill-rule:nonzero;stroke:none;stroke-width:1.26999998;stroke-linecap:butt;stroke-linejoin:miter;stroke-miterlimit:4;stroke-dasharray:none;stroke-dashoffset:0" /></g></g></g></svg>